# xmcd
#
# Track frame offsets: 
#        182
#        10465
#        21392
#        33730
#        48505
#        64787
#        79412
#        95555
#        113975
#        125887
#        138775
#        152075
#        164945
#        179025
#        194217
#        204502
#        217752
#        228292
#
# Disc length: 3258 seconds
#
# Revision: 2
# Processed by: cddbd v1.5.2PL0 Copyright (c) Steve Scherf et al.
# Submitted via: ExactAudioCopyFreeDBPlugin 1.0
#
DISCID=160cb812
DTITLE=Various Artist - Country Days and Country Nights
DYEAR=1900
DGENRE=Country
TTITLE0=Jim Reeves - He'll Have To Go
TTITLE1=Charley Pride - Oklahoma Morning
TTITLE2=Loretta Lynn - Me And Bobby McGee
TTITLE3=Johnny Cash - I Walk The Line
TTITLE4=Willie Nelson - Always On My Mind
TTITLE5=Jerry Lee Lewis - What's Made Milwaulkee Famous (Has Made A Lo
TTITLE5=ser Out Of Me)
TTITLE6=Brenda Lee - Johnny One Time
TTITLE7=Tom T. Hall - I Like Beer
TTITLE8=Jim Reeves - Mexican Joe
TTITLE9=Charley Pride - Crystal Chandeliers
TTITLE10=Loretta Lynn - Let Your Love Flow
TTITLE11=Johnny Cash - Ring Of Fire
TTITLE12=Willie Nelson - Blue Eyes Crying In The Rain
TTITLE13=Jerry Lee Lewis - Cold Cold Heart
TTITLE14=Brenda Lee - I'm Sorry
TTITLE15=Charley Pride - Kaw-Liga
TTITLE16=Loretta Lynn - You're Lookin' At Country
TTITLE17=Johnny Cash - A Boy Named Sue
EXTD=Penny Country\nPYCD 173\nNewsound
EXTT0=
EXTT1=
EXTT2=
EXTT3=
EXTT4=
EXTT5=
EXTT6=
EXTT7=
EXTT8=
EXTT9=
EXTT10=
EXTT11=
EXTT12=
EXTT13=
EXTT14=
EXTT15=
EXTT16=
EXTT17=
PLAYORDER=
